<svg width="128" height="107" viewBox="0 0 128 107" fill="none" xmlns="http://www.w3.org/2000/svg">
<path d="M121.613 69.8992V73.0078M120.064 71.4535H123.161" stroke="#7E90B0" stroke-width="1.05959" stroke-linecap="round" stroke-linejoin="round"/>
<path d="M22.0508 49.5613C22.0508 32.8758 22.0508 24.533 27.2297 19.3494C32.4086 14.1659 40.7439 14.1659 57.4146 14.1659C57.8639 14.1659 70.9371 14.1659 71.3744 14.166C87.1622 14.1697 95.1901 14.3056 100.229 19.3494C105.408 24.533 105.408 32.8758 105.408 49.5613C105.408 50.3444 105.408 58.6939 105.408 59.4407C105.397 74.6078 105.165 82.4177 100.229 87.358C95.1901 92.4018 87.1622 92.5377 71.3744 92.5414C70.9371 92.5415 57.8639 92.5415 57.4146 92.5415C40.7439 92.5415 32.4086 92.5415 27.2297 87.358C22.2938 82.4177 22.0622 74.6078 22.0513 59.4407C22.0508 58.6939 22.0508 50.3444 22.0508 49.5613Z" fill="#B7C8FC" fill-opacity="0.24"/>
<path d="M122.94 12.4531L122.723 12.2606C122.672 12.3186 122.646 12.3949 122.651 12.4723L122.94 12.4531ZM123.737 11.5576L123.522 11.3631L123.521 11.3651L123.737 11.5576ZM123.811 10.8412L124.063 10.6983L124.062 10.6963L123.811 10.8412ZM123.329 10.0075L123.58 9.86264L123.578 9.85952L123.329 10.0075ZM122.668 9.71111L122.726 9.99469L122.727 9.99446L122.668 9.71111ZM121.494 9.95196L121.331 10.1914C121.395 10.2353 121.475 10.2512 121.552 10.2355L121.494 9.95196ZM121.005 9.66788L120.731 9.75993C120.755 9.83117 120.805 9.89033 120.872 9.92491L121.005 9.66788ZM120.622 8.52541L120.897 8.43336L120.896 8.43181L120.622 8.52541ZM118.484 8.52541L118.211 8.42971L118.21 8.43336L118.484 8.52541ZM118.101 9.66788L118.223 9.93047C118.295 9.897 118.35 9.83533 118.375 9.75993L118.101 9.66788ZM117.613 9.95196L117.555 10.2355C117.634 10.2518 117.716 10.2342 117.782 10.1869L117.613 9.95196ZM116.439 9.71111L116.378 9.99418L116.38 9.99469L116.439 9.71111ZM115.777 10.0075L115.529 9.85951L115.527 9.86265L115.777 10.0075ZM115.295 10.8412L115.544 10.9893L115.546 10.9861L115.295 10.8412ZM115.369 11.5576L115.586 11.3651L115.584 11.3631L115.369 11.5576ZM116.167 12.4531L116.455 12.4723C116.461 12.3949 116.434 12.3186 116.383 12.2606L116.167 12.4531ZM116.167 13.0212L116.383 13.2137C116.434 13.1557 116.461 13.0794 116.455 13.0019L116.167 13.0212ZM115.369 13.9167L115.584 14.1111L115.586 14.1091L115.369 13.9167ZM115.295 14.633L115.044 14.776L115.045 14.7779L115.295 14.633ZM115.777 15.4667L115.527 15.6116L115.529 15.6147L115.777 15.4667ZM116.439 15.7632L116.38 15.4796L116.379 15.4798L116.439 15.7632ZM117.613 15.5223L117.775 15.2829C117.711 15.239 117.631 15.223 117.555 15.2387L117.613 15.5223ZM118.101 15.8064L118.375 15.7143C118.351 15.6431 118.301 15.5839 118.234 15.5494L118.101 15.8064ZM118.484 16.9489L118.21 17.0409L118.21 17.0425L118.484 16.9489ZM120.622 16.9489L120.895 17.0446L120.897 17.0409L120.622 16.9489ZM121.005 15.8064L120.884 15.5438C120.811 15.5773 120.756 15.6389 120.731 15.7143L121.005 15.8064ZM121.494 15.5223L121.552 15.2387C121.473 15.2225 121.39 15.2401 121.324 15.2873L121.494 15.5223ZM122.668 15.7632L122.728 15.4801L122.726 15.4796L122.668 15.7632ZM123.329 15.4667L123.578 15.6148L123.58 15.6116L123.329 15.4667ZM123.811 14.633L123.562 14.485L123.56 14.4881L123.811 14.633ZM123.737 13.9167L123.521 14.1092L123.522 14.1111L123.737 13.9167ZM122.94 13.0212L122.651 13.0019C122.646 13.0794 122.672 13.1557 122.723 13.2137L122.94 13.0212ZM121.099 12.7371H120.809C120.809 13.4297 120.247 13.9915 119.554 13.9915V14.281V14.5705C120.567 14.5705 121.388 13.7499 121.388 12.7371H121.099ZM119.554 14.281V13.9915C118.86 13.9915 118.298 13.4297 118.298 12.7371H118.009H117.719C117.719 13.7499 118.541 14.5705 119.554 14.5705V14.281ZM118.009 12.7371H118.298C118.298 12.0445 118.86 11.4827 119.554 11.4827V11.1932V10.9038C118.541 10.9038 117.719 11.7244 117.719 12.7371H118.009ZM119.554 11.1932V11.4827C120.247 11.4827 120.809 12.0445 120.809 12.7371H121.099H121.388C121.388 11.7244 120.567 10.9038 119.554 10.9038V11.1932ZM122.952 12.7371H123.241C123.241 12.6336 123.235 12.5257 123.228 12.4338L122.94 12.4531L122.651 12.4723C122.657 12.5657 122.662 12.6554 122.662 12.7371H122.952ZM122.94 12.4531L123.156 12.6455L123.953 11.7501L123.737 11.5576L123.521 11.3651L122.723 12.2606L122.94 12.4531ZM123.737 11.5576L123.951 11.7521C124.218 11.4576 124.251 11.0304 124.063 10.6983L123.811 10.8412L123.559 10.9842C123.63 11.109 123.614 11.2624 123.522 11.3631L123.737 11.5576ZM123.811 10.8412L124.062 10.6963L123.58 9.86265L123.329 10.0075L123.078 10.1524L123.56 10.9861L123.811 10.8412ZM123.329 10.0075L123.578 9.85952C123.382 9.53049 123.002 9.34553 122.608 9.42777L122.668 9.71111L122.727 9.99446C122.865 9.96554 123.004 10.0276 123.08 10.1556L123.329 10.0075ZM122.668 9.71111L122.61 9.42754L121.435 9.66838L121.494 9.95196L121.552 10.2355L122.726 9.99469L122.668 9.71111ZM121.494 9.95196L121.656 9.71253C121.488 9.59816 121.31 9.49946 121.139 9.41086L121.005 9.66788L120.872 9.92491C121.035 10.0092 121.19 10.0958 121.331 10.1914L121.494 9.95196ZM121.005 9.66788L121.28 9.57584L120.897 8.43336L120.622 8.52541L120.348 8.61745L120.731 9.75993L121.005 9.66788ZM120.622 8.52541L120.896 8.43181C120.769 8.06108 120.424 7.81599 120.035 7.81599V8.10547V8.39495C120.177 8.39495 120.302 8.48334 120.348 8.61901L120.622 8.52541ZM120.035 8.10547V7.81599H119.071V8.10547V8.39495H120.035V8.10547ZM119.071 8.10547V7.81599C118.679 7.81599 118.337 8.07019 118.211 8.42972L118.484 8.52541L118.757 8.62109C118.804 8.48658 118.932 8.39495 119.071 8.39495V8.10547ZM118.484 8.52541L118.21 8.43336L117.826 9.57584L118.101 9.66788L118.375 9.75993L118.758 8.61745L118.484 8.52541ZM118.101 9.66788L117.979 9.40529C117.791 9.49276 117.614 9.59447 117.444 9.71698L117.613 9.95196L117.782 10.1869C117.92 10.0871 118.065 10.0036 118.223 9.93047L118.101 9.66788ZM117.613 9.95196L117.671 9.66838L116.497 9.42754L116.439 9.71111L116.38 9.99469L117.555 10.2355L117.613 9.95196ZM116.439 9.71111L116.499 9.42805C116.112 9.34511 115.725 9.53001 115.529 9.85952L115.777 10.0075L116.026 10.1556C116.102 10.0281 116.246 9.96596 116.378 9.99417L116.439 9.71111ZM115.777 10.0075L115.527 9.86265L115.045 10.6963L115.295 10.8412L115.546 10.9861L116.028 10.1524L115.777 10.0075ZM115.295 10.8412L115.047 10.6932C114.845 11.0327 114.892 11.4617 115.155 11.7521L115.369 11.5576L115.584 11.3631C115.489 11.2583 115.474 11.1068 115.544 10.9893L115.295 10.8412ZM115.369 11.5576L115.153 11.7501L115.95 12.6455L116.167 12.4531L116.383 12.2606L115.586 11.3651L115.369 11.5576ZM116.167 12.4531L115.878 12.4338C115.872 12.5253 115.865 12.6272 115.865 12.7371H116.154H116.444C116.444 12.6494 116.449 12.5661 116.455 12.4723L116.167 12.4531ZM116.154 12.7371H115.865C115.865 12.847 115.872 12.949 115.878 13.0405L116.167 13.0212L116.455 13.0019C116.449 12.9082 116.444 12.8248 116.444 12.7371H116.154ZM116.167 13.0212L115.95 12.8287L115.153 13.7242L115.369 13.9167L115.586 14.1091L116.383 13.2137L116.167 13.0212ZM115.369 13.9167L115.155 13.7222C114.888 14.0167 114.855 14.4438 115.044 14.776L115.295 14.633L115.547 14.4901C115.476 14.3652 115.493 14.2119 115.584 14.1111L115.369 13.9167ZM115.295 14.633L115.045 14.7779L115.527 15.6116L115.777 15.4667L116.028 15.3218L115.546 14.4881L115.295 14.633ZM115.777 15.4667L115.529 15.6147C115.724 15.9438 116.105 16.1287 116.498 16.0465L116.439 15.7632L116.379 15.4798C116.241 15.5087 116.102 15.4467 116.026 15.3187L115.777 15.4667ZM116.439 15.7632L116.497 16.0467L117.671 15.8059L117.613 15.5223L117.555 15.2387L116.38 15.4796L116.439 15.7632ZM117.613 15.5223L117.45 15.7617C117.618 15.8761 117.797 15.9748 117.968 16.0634L118.101 15.8064L118.234 15.5494C118.071 15.465 117.916 15.3785 117.775 15.2829L117.613 15.5223ZM118.101 15.8064L117.826 15.8984L118.21 17.0409L118.484 16.9489L118.758 16.8568L118.375 15.7143L118.101 15.8064ZM118.484 16.9489L118.21 17.0425C118.337 17.4132 118.682 17.6583 119.071 17.6583V17.3688V17.0793C118.929 17.0793 118.804 16.9909 118.758 16.8553L118.484 16.9489ZM119.071 17.3688V17.6583H120.035V17.3688V17.0793H119.071V17.3688ZM120.035 17.3688V17.6583C120.428 17.6583 120.769 17.4041 120.895 17.0445L120.622 16.9489L120.349 16.8532C120.302 16.9877 120.174 17.0793 120.035 17.0793V17.3688ZM120.622 16.9489L120.897 17.0409L121.28 15.8984L121.005 15.8064L120.731 15.7143L120.348 16.8568L120.622 16.9489ZM121.005 15.8064L121.127 16.069C121.316 15.9815 121.492 15.8798 121.663 15.7573L121.494 15.5223L121.324 15.2873C121.186 15.3871 121.041 15.4707 120.884 15.5438L121.005 15.8064ZM121.494 15.5223L121.435 15.8059L122.61 16.0467L122.668 15.7632L122.726 15.4796L121.552 15.2387L121.494 15.5223ZM122.668 15.7632L122.607 16.0462C122.994 16.1292 123.382 15.9443 123.578 15.6147L123.329 15.4667L123.08 15.3187C123.004 15.4462 122.86 15.5083 122.728 15.4801L122.668 15.7632ZM123.329 15.4667L123.58 15.6116L124.062 14.7779L123.811 14.633L123.56 14.4881L123.078 15.3218L123.329 15.4667ZM123.811 14.633L124.06 14.781C124.262 14.4416 124.215 14.0126 123.951 13.7222L123.737 13.9167L123.522 14.1111C123.617 14.216 123.632 14.3675 123.562 14.485L123.811 14.633ZM123.737 13.9167L123.953 13.7242L123.156 12.8287L122.94 13.0212L122.723 13.2137L123.521 14.1091L123.737 13.9167ZM122.94 13.0212L123.228 13.0405C123.235 12.949 123.241 12.847 123.241 12.7371H122.952H122.662C122.662 12.8248 122.657 12.9082 122.651 13.0019L122.94 13.0212Z" fill="#7E90B0" fill-opacity="0.6"/>
<path d="M4.73627 62.3361V64.1704" stroke="#7E90B0" stroke-width="1.05959" stroke-linecap="round" stroke-linejoin="round"/>
<path d="M4.73627 66.6154V68.4497" stroke="#7E90B0" stroke-width="1.05959" stroke-linecap="round" stroke-linejoin="round"/>
<path d="M1.69141 65.3923H3.51888" stroke="#7E90B0" stroke-width="1.05959" stroke-linecap="round" stroke-linejoin="round"/>
<path d="M5.95508 65.3923H7.78256" stroke="#7E90B0" stroke-width="1.05959" stroke-linecap="round" stroke-linejoin="round"/>
<circle cx="111.697" cy="35.1872" r="1.94259" stroke="#E56470" stroke-width="1.05959"/>
<circle cx="20.7736" cy="93.1427" r="1.13832" stroke="#E56470" stroke-width="1.05959"/>
<path d="M77.2266 34.4971C77.2266 32.7847 78.6147 31.3965 80.3272 31.3965H89.3275C91.0399 31.3965 92.4281 32.7847 92.4281 34.4971V75.5894C92.4281 77.3018 91.0399 78.69 89.3275 78.69H80.3272C78.6147 78.69 77.2266 77.3018 77.2266 75.5894V34.4971Z" fill="#80A3EB" fill-opacity="0.25" stroke="#75A4FE" stroke-width="0.955281"/>
<path d="M32.4668 64.9014C32.4668 63.189 33.855 61.8008 35.5674 61.8008H44.5677C46.2801 61.8008 47.6683 63.189 47.6683 64.9014V75.5907C47.6683 77.3031 46.2801 78.6913 44.5677 78.6913H35.5674C33.855 78.6913 32.4668 77.3031 32.4668 75.5907V64.9014Z" stroke="#75A4FE" stroke-width="0.955281"/>
<path d="M55.2676 50.544C55.2676 48.8315 56.6558 47.4434 58.3682 47.4434H66.5239C68.2364 47.4434 69.6245 48.8315 69.6245 50.544V75.5903C69.6245 77.3027 68.2364 78.6909 66.5239 78.6909H58.3682C56.6558 78.6909 55.2676 77.3027 55.2676 75.5903V50.544Z" stroke="#75A4FE" stroke-width="0.955281"/>
<path d="M8.6041 5.29262V7.45201M7.52734 6.37232H9.68086M13.1607 14.3965L12.4138 12.4492C12.2924 12.1325 12.2316 11.9742 12.1372 11.841C12.0535 11.723 11.9506 11.6198 11.8329 11.5359C11.7001 11.4412 11.5422 11.3803 11.2264 11.2585L9.28445 10.5096L11.2264 9.7606C11.5422 9.6388 11.7001 9.5779 11.8329 9.4832C11.9506 9.39927 12.0535 9.29614 12.1372 9.17811C12.2316 9.04492 12.2924 8.88658 12.4138 8.56991L13.1607 6.62264L13.9077 8.56991C14.0291 8.88658 14.0899 9.04492 14.1843 9.17811C14.268 9.29614 14.3708 9.39927 14.4886 9.4832C14.6214 9.5779 14.7793 9.6388 15.0951 9.7606L17.037 10.5096L15.0951 11.2585C14.7793 11.3803 14.6214 11.4412 14.4886 11.5359C14.3708 11.6198 14.268 11.723 14.1843 11.841C14.0899 11.9742 14.0291 12.1325 13.9077 12.4492L13.1607 14.3965Z" stroke="#5BC1A5" stroke-width="1.05959" stroke-linecap="round" stroke-linejoin="round"/>
</svg>
